HIERARCHY
ROOT HipCenter
{
    OFFSET 0.0 0.0 -0.0
    CHANNELS 6 Xposition Yposition Zposition Zrotation Xrotation Yrotation
    JOINT Spine
    {
        OFFSET 0.0 0.1025826707482338 0.0
        CHANNELS 3 Zrotation Xrotation Yrotation
        JOINT ShoulderCenter
        {
            OFFSET 0.0 0.2981433570384979 0.0
            CHANNELS 3 Zrotation Xrotation Yrotation
            JOINT LeftShoulder
            {
                OFFSET 0.18971291184425354 0.0 0.0
                CHANNELS 3 Zrotation Xrotation Yrotation
                JOINT LeftElbow
                {
                    OFFSET 0.21993669867515564 0.0 0.0
                    CHANNELS 3 Zrotation Xrotation Yrotation
                    JOINT LeftWrist
                    {
                        OFFSET 0.26976990699768066 0.0 0.0
                        CHANNELS 3 Zrotation Xrotation Yrotation
                        JOINT LeftHand
                        {
                            OFFSET 0.040176793932914734 0.0 0.0
                            CHANNELS 3 Zrotation Xrotation Yrotation
                            End Site
                            {
                                OFFSET 0.016070719808340073 0.0 0.0
                            }
                        }
                    }
                }
            }
            JOINT RightShoulder
            {
                OFFSET -0.18971291184425354 0.0 0.0
                CHANNELS 3 Zrotation Xrotation Yrotation
                JOINT RightElbow
                {
                    OFFSET -0.21993669867515564 0.0 0.0
                    CHANNELS 3 Zrotation Xrotation Yrotation
                    JOINT RightWrist
                    {
                        OFFSET -0.26976990699768066 0.0 0.0
                        CHANNELS 3 Zrotation Xrotation Yrotation
                        JOINT RightHand
                        {
                            OFFSET -0.040176793932914734 0.0 0.0
                            CHANNELS 3 Zrotation Xrotation Yrotation
                            End Site
                            {
                                OFFSET -0.016070719808340073 0.0 0.0
                            }
                        }
                    }
                }
            }
            End Site
            {
                OFFSET 0.0 0.11925733834505081 0.0
            }
        }
    }
    JOINT LeftHip
    {
        OFFSET 0.1268492341041565 0.0 0.0
        CHANNELS 3 Zrotation Xrotation Yrotation
        JOINT LeftKnee
        {
            OFFSET 0.0 -0.38004305958747864 0.0
            CHANNELS 3 Zrotation Xrotation Yrotation
            JOINT LeftAnkle
            {
                OFFSET 0.0 -0.37753474712371826 0.0
                CHANNELS 3 Zrotation Xrotation Yrotation
                JOINT LeftFoot
                {
                    OFFSET 0.0 -0.09020087122917175 0.0
                    CHANNELS 3 Zrotation Xrotation Yrotation
                    End Site
                    {
                        OFFSET 0.0 0.0 0.03608035296201706
                    }
                }
            }
        }
    }
    JOINT RightHip
    {
        OFFSET -0.1268492341041565 0.0 0.0
        CHANNELS 3 Zrotation Xrotation Yrotation
        JOINT RightKnee
        {
            OFFSET 0.0 -0.38004305958747864 0.0
            CHANNELS 3 Zrotation Xrotation Yrotation
            JOINT RightAnkle
            {
                OFFSET 0.0 -0.37753474712371826 0.0
                CHANNELS 3 Zrotation Xrotation Yrotation
                JOINT RightFoot
                {
                    OFFSET 0.0 -0.09020087122917175 0.0
                    CHANNELS 3 Zrotation Xrotation Yrotation
                    End Site
                    {
                        OFFSET 0.0 0.0 0.03608035296201706
                    }
                }
            }
        }
    }
}
MOTION
Frames: 4
Frame Time: 0.03333333333333333
1.0670000314712524 -0.07199999690055847 0.014000000432133675 -1.503683744265547e-08 0.5562517745663356 89.64431702315937 -3.8235683825880207 0.3601890385501888 0.03856417366886784 2.0512852232955248e-07 -3.0092405581905854e-07 -1.516799846908556 99.84460712527506 22.317229602220092 179.80279950490817 -1.3414586602638035e-06 2.4200705235607763e-06 16.196712575493166 3.3784330779001887e-06 -33.856387721536066 26.485927428093923 0.0 0.0 0.0 -90.88400785005545 30.590618227753904 -171.7998824109821 -3.413017462263487e-06 2.2777035988639045e-06 -19.942959461765238 -6.37554971788654e-07 7.606222475540034 -42.014430611397444 2.3854160110976376e-15 -6.3611093629270335e-15 1.3241718894150476e-31 -1.6799878006476474 10.452428076898272 -26.636279216865805 -0.0396595029058621 1.6942703149158331 -1.4790215793760186 -66.03502192454035 -69.65806872848552 -23.546239165370515 -1.5902773407317582e-15 1.1034765745125397e-32 -7.951386703658791e-16 2.6568101120194294 11.278495460288298 27.72511291099946 -0.41821488061655243 -1.746631836132419 -1.609872119868932 158.09209228258166 -66.80150622617832 117.3610278374623 6.3611093629270335e-15 0.0 0.0
1.065000057220459 -0.07199999690055847 0.014000000432133675 -3.860912668855114e-08 1.1123998194991942 89.64439200729788 -4.573680702656261 0.7392737236149104 0.08169233849920597 1.1673700316265401e-08 -9.252659841483338e-08 -1.516738094936307 99.66746331159156 22.779788002490555 -179.78016517624664 -6.490683333997801e-06 2.680849763772452e-07 16.464972921461158 5.085078151393203e-06 -33.71223878763546 26.36995195324261 -1.2722218725854067e-14 3.9756933518293994e-16 -3.1805546814635168e-15 -89.88529405937865 29.42327491570824 -173.57988497666904 -4.985238368141802e-06 -3.8414296371807365e-06 -22.76549819934225 3.7508046064185284e-06 9.766826180045967 -26.256360966790528 -6.361109362927033e-15 0.0 0.0 -3.099909617981669 6.973020892521545 -23.954094248168722 -0.8707356634623467 2.9125754091704064 -2.5140274511330434 29.74675529262216 -65.45630475126531 68.74314914716511 1.3241718894150476e-31 -1.5902773407317584e-15 9.54166404439055e-15 2.099688019417961 11.425276448676401 28.36705974649624 -0.5790028051780631 -2.0076869573981626 -1.843123640716838 159.29963398721 -66.50582969915293 118.80729100140981 0.0 0.0 0.0
1.0640000104904175 -0.07199999690055847 0.014999999664723873 -3.104030557348985e-08 0.5562528567300221 89.64433726631646 -3.8259474467084993 0.7440490186565663 0.08436697546131292 -4.483899336289806e-08 1.2455120702444563e-07 -1.6744775328476051 99.39434309381097 22.09696800411052 -179.53154194158347 -2.3155998575283731e-07 -1.4314202705757887e-06 16.611625980598124 -4.537605430153559e-07 -33.21293841591817 25.775865369228754 1.1034765745125397e-32 3.975693351829396e-16 -3.1805546814635168e-15 -89.99565453634507 27.757821240501467 -173.9946384706886 -4.1748813599093105e-06 -6.786135440816173e-06 -22.892578441358722 7.074301004201403e-07 -1.328331755114905 -22.676191646833747 7.951386703658792e-15 6.3611093629270335e-15 -4.413906298050159e-31 -2.536779603085949 6.664452057218219 -22.838240935762638 -1.0003156524370944 3.350171335123782 -2.8459219405938367 29.200931207397428 -66.15338463944465 67.77096032531892 4.770832022195275e-15 1.5902773407317584e-15 1.5902773407317584e-15 2.6577809249542006 11.12808159959478 27.887401368803985 -0.4231675183461677 -1.745847843311995 -1.629457616534965 156.3063316992501 -66.70356358446757 115.11547126124358 0.0 0.0 -7.951386703658791e-16
1.062000036239624 -0.07199999690055847 0.014999999664723873 -1.8944951367266094e-08 0.55625284701413 89.64429679057224 -3.8271366661798267 0.9359633704028412 0.10613566911587077 -3.194771963327721e-07 -9.545223973373179e-08 -1.8303240098803661 99.33885455240745 21.766907246862534 -179.35300153941537 1.3413523635675911e-06 6.354389429654796e-07 16.990936866584462 2.427584324656323e-07 -32.013169605649814 25.69864913520675 0.0 3.9756933518293955e-16 0.0 -89.6910072698976 28.085535137905083 -174.14251922610958 2.5152226618404193e-06 -1.4894616215734677e-06 -23.50819497016757 9.211821939665708e-08 -0.9260322486597451 -22.221869461964012 3.1805546814635168e-15 0.0 0.0 -2.3868209841130694 6.518788298006778 -23.346772058095144 -1.223612591836578 3.4161831601273933 -2.882545345107546 30.236262060497914 -65.89052528311237 68.63308104977783 -9.541664044390547e-15 1.5902773407317574e-15 7.95138670365879e-15 2.6558349117932614 11.428728852217601 28.656340363393497 -0.5981725482325706 -2.344349870947759 -2.1744267664109955 156.60297363953413 -65.73549341315625 115.79527694473568 0.0 0.0 3.1805546814635164e-15
